<?xml version="1.0" ?><svg enable-background="new 0 0 32 32" version="1.1" viewBox="0 0 32 32" xml:space="preserve" xmlns="http://www.w3.org/2000/svg" xmlns:xlink="http://www.w3.org/1999/xlink"><g id="FLAT_2_copy_3"><g><g><rect fill="#FFFFFF" height="22.127" transform="matrix(0.7071 -0.7071 0.7071 0.7071 -6.6276 16.0001)" width="22.127" x="4.936" y="4.937"/><g><path d="M16,0.707L31.293,16L16,31.293L0.707,16L16,0.707 M16,0L0,16l16,16l16-16L16,0L16,0z" fill="#CCCCCC"/></g></g><polygon fill="#999999" points="18.319,4.13 18.224,2.224 29.776,13.776 27.87,13.681   "/><polygon fill="#999999" points="13.681,27.87 13.776,29.776 2.224,18.224 4.13,18.319   "/></g><path d="M17.621,23.201h-1.845h-1.847c0,0,0.005-1.096,0-1.847c-2.527,0.544-3.232-1.385-3.232-1.385   c-0.462-0.923-0.923-1.385-0.923-1.385c-0.923-0.549,0-0.462,0-0.462c0.923,0,1.385,0.923,1.385,0.923   c0.81,1.376,2.252,1.154,2.77,0.923c0-0.462,0.202-1.16,0.462-1.385c-2.017-0.227-3.696-1.385-3.696-3.694s0.464-2.77,0.925-3.232   c-0.093-0.228-0.48-1.069,0.014-2.309c0,0,0.907,0,1.831,1.385c0.458-0.458,1.847-0.462,2.309-0.462   c0.461,0,1.851,0.004,2.308,0.462c0.923-1.385,1.833-1.385,1.833-1.385c0.494,1.24,0.108,2.081,0.014,2.309   c0.462,0.462,0.923,0.923,0.923,3.232s-1.676,3.467-3.694,3.694c0.26,0.225,0.462,1.02,0.462,1.385L17.621,23.201L17.621,23.201z" fill="#FF0000" id="Cat_5_"/></g></svg>